<?xml version="1.0" encoding="UTF-8" standalone="no"?><svg xmlns="http://www.w3.org/2000/svg" xmlns:xlink="http://www.w3.org/1999/xlink" contentScriptType="application/ecmascript" contentStyleType="text/css" height="790px" preserveAspectRatio="none" style="width:589px;height:790px;background:#FFFFFF;" version="1.1" viewBox="0 0 589 790" width="589px" zoomAndPan="magnify"><defs><filter height="300%" id="f1471yf8puedxh" width="300%" x="-1" y="-1"><feGaussianBlur result="blurOut" stdDeviation="2.0"/><feColorMatrix in="blurOut" result="blurOut2" type="matrix" values="0 0 0 0 0 0 0 0 0 0 0 0 0 0 0 0 0 0 .4 0"/><feOffset dx="4.0" dy="4.0" in="blurOut2" result="blurOut3"/><feBlend in="SourceGraphic" in2="blurOut3" mode="normal"/></filter></defs><g><!--MD5=[1e5b20c0f89f699a9aa633824414fa54]
class Cabinet--><rect codeLine="1" fill="#FEFECE" filter="url(#f1471yf8puedxh)" height="131.0156" id="Cabinet" style="stroke:#A80036;stroke-width:1.5;" width="210" x="256" y="481"/><ellipse cx="335.25" cy="497" fill="#ADD1B2" rx="11" ry="11" style="stroke:#A80036;stroke-width:1.0;"/><path d="M338.0156,492.875 Q338.1719,492.6563 338.3594,492.5469 Q338.5469,492.4375 338.7656,492.4375 Q339.1406,492.4375 339.375,492.6953 Q339.6094,492.9531 339.6094,493.5625 L339.6094,495.0156 Q339.6094,495.625 339.375,495.8906 Q339.1406,496.1563 338.7656,496.1563 Q338.4219,496.1563 338.2188,495.9531 Q338.0156,495.7656 337.9063,495.25 Q337.8594,494.8906 337.6719,494.7031 Q337.3438,494.3281 336.7344,494.1094 Q336.125,493.8906 335.5,493.8906 Q334.7344,493.8906 334.1016,494.2188 Q333.4688,494.5469 332.9766,495.2969 Q332.4844,496.0469 332.4844,497.0781 L332.4844,498.1719 Q332.4844,499.4063 333.375,500.2266 Q334.2656,501.0469 335.8594,501.0469 Q336.7969,501.0469 337.4531,500.7969 Q337.8438,500.6406 338.2656,500.2031 Q338.5313,499.9375 338.6797,499.8594 Q338.8281,499.7813 339.0313,499.7813 Q339.3594,499.7813 339.6172,500.0391 Q339.875,500.2969 339.875,500.6406 Q339.875,500.9844 339.5313,501.3906 Q339.0313,501.9688 338.2344,502.2969 Q337.1563,502.75 335.8594,502.75 Q334.3438,502.75 333.1406,502.125 Q332.1563,501.625 331.4688,500.5547 Q330.7813,499.4844 330.7813,498.2031 L330.7813,497.0469 Q330.7813,495.7188 331.3984,494.5703 Q332.0156,493.4219 333.1094,492.8047 Q334.2031,492.1875 335.4375,492.1875 Q336.1719,492.1875 336.8203,492.3516 Q337.4688,492.5156 338.0156,492.875 Z " fill="#000000"/><text fill="#000000" font-family="sans-serif" font-size="12" lengthAdjust="spacing" textLength="43" x="355.75" y="501.9102">Cabinet</text><line style="stroke:#A80036;stroke-width:1.5;" x1="257" x2="465" y1="513" y2="513"/><rect fill="none" height="6" style="stroke:#C82930;stroke-width:1.0;" width="6" x="264" y="521"/><text fill="#000000" font-family="sans-serif" font-size="11" lengthAdjust="spacing" textLength="83" x="276" y="528.4189">pm: PrimeMinister</text><rect fill="none" height="6" style="stroke:#C82930;stroke-width:1.0;" width="6" x="264" y="534.8359"/><text fill="#000000" font-family="sans-serif" font-size="11" lengthAdjust="spacing" textLength="115" x="276" y="542.2549">ministers:List &lt;Minister&gt;</text><line style="stroke:#A80036;stroke-width:1.5;" x1="257" x2="465" y1="548.6719" y2="548.6719"/><ellipse cx="267" cy="559.6719" fill="#84BE84" rx="3" ry="3" style="stroke:#038048;stroke-width:1.0;"/><text fill="#000000" font-family="sans-serif" font-size="11" lengthAdjust="spacing" textLength="127" x="276" y="564.0908">Cabinet(pm :PrimeMinister)</text><rect fill="#F24D5C" height="6" style="stroke:#C82930;stroke-width:1.0;" width="6" x="264" y="570.5078"/><text fill="#000000" font-family="sans-serif" font-size="11" lengthAdjust="spacing" textLength="92" x="276" y="577.9268">countMinisters():int</text><ellipse cx="267" cy="587.3438" fill="#84BE84" rx="3" ry="3" style="stroke:#038048;stroke-width:1.0;"/><text fill="#000000" font-family="sans-serif" font-size="11" lengthAdjust="spacing" textLength="166" x="276" y="591.7627">addMinister(minister:Minister ):void</text><ellipse cx="267" cy="601.1797" fill="#84BE84" rx="3" ry="3" style="stroke:#038048;stroke-width:1.0;"/><text fill="#000000" font-family="sans-serif" font-size="11" lengthAdjust="spacing" textLength="184" x="276" y="605.5986">removeMinister(minister:Minister ):void</text><!--MD5=[b11deadbce0bfcec5677b3eb42f4bda1]
class MemberOfParliament--><rect codeLine="10" fill="#FEFECE" filter="url(#f1471yf8puedxh)" height="75.6719" id="MemberOfParliament" style="stroke:#A80036;stroke-width:1.5;" width="149" x="73.5" y="285.5"/><ellipse cx="88.5" cy="301.5" fill="#ADD1B2" rx="11" ry="11" style="stroke:#A80036;stroke-width:1.0;"/><path d="M91.2656,297.375 Q91.4219,297.1563 91.6094,297.0469 Q91.7969,296.9375 92.0156,296.9375 Q92.3906,296.9375 92.625,297.1953 Q92.8594,297.4531 92.8594,298.0625 L92.8594,299.5156 Q92.8594,300.125 92.625,300.3906 Q92.3906,300.6563 92.0156,300.6563 Q91.6719,300.6563 91.4688,300.4531 Q91.2656,300.2656 91.1563,299.75 Q91.1094,299.3906 90.9219,299.2031 Q90.5938,298.8281 89.9844,298.6094 Q89.375,298.3906 88.75,298.3906 Q87.9844,298.3906 87.3516,298.7188 Q86.7188,299.0469 86.2266,299.7969 Q85.7344,300.5469 85.7344,301.5781 L85.7344,302.6719 Q85.7344,303.9063 86.625,304.7266 Q87.5156,305.5469 89.1094,305.5469 Q90.0469,305.5469 90.7031,305.2969 Q91.0938,305.1406 91.5156,304.7031 Q91.7813,304.4375 91.9297,304.3594 Q92.0781,304.2813 92.2813,304.2813 Q92.6094,304.2813 92.8672,304.5391 Q93.125,304.7969 93.125,305.1406 Q93.125,305.4844 92.7813,305.8906 Q92.2813,306.4688 91.4844,306.7969 Q90.4063,307.25 89.1094,307.25 Q87.5938,307.25 86.3906,306.625 Q85.4063,306.125 84.7188,305.0547 Q84.0313,303.9844 84.0313,302.7031 L84.0313,301.5469 Q84.0313,300.2188 84.6484,299.0703 Q85.2656,297.9219 86.3594,297.3047 Q87.4531,296.6875 88.6875,296.6875 Q89.4219,296.6875 90.0703,296.8516 Q90.7188,297.0156 91.2656,297.375 Z " fill="#000000"/><text fill="#000000" font-family="sans-serif" font-size="12" lengthAdjust="spacing" textLength="117" x="102.5" y="306.4102">MemberOfParliament</text><line style="stroke:#A80036;stroke-width:1.5;" x1="74.5" x2="221.5" y1="317.5" y2="317.5"/><line style="stroke:#A80036;stroke-width:1.5;" x1="74.5" x2="221.5" y1="325.5" y2="325.5"/><ellipse cx="84.5" cy="336.5" fill="#84BE84" rx="3" ry="3" style="stroke:#038048;stroke-width:1.0;"/><text fill="#000000" font-family="sans-serif" font-size="11" lengthAdjust="spacing" textLength="118" x="93.5" y="340.9189">debate(String topic):void</text><ellipse cx="84.5" cy="350.3359" fill="#84BE84" rx="3" ry="3" style="stroke:#038048;stroke-width:1.0;"/><text fill="#000000" font-family="sans-serif" font-size="11" lengthAdjust="spacing" textLength="71" x="93.5" y="354.7549">vote():Boolean</text><!--MD5=[6ba01950a6a73114ec15b115dba23a29]
class Politician--><rect codeLine="37" fill="#FEFECE" filter="url(#f1471yf8puedxh)" height="103.3438" id="Politician" style="stroke:#A80036;stroke-width:1.5;" width="162" x="9" y="35"/><ellipse cx="60.75" cy="51" fill="#A9DCDF" rx="11" ry="11" style="stroke:#A80036;stroke-width:1.0;"/><path d="M62.9375,52.7656 L58.7969,52.7656 L58.375,53.7969 L58.7969,53.7969 Q59.4063,53.7969 59.6719,54.0313 Q59.9375,54.2656 59.9375,54.6563 Q59.9375,55.0313 59.6719,55.2656 Q59.4063,55.5 58.7969,55.5 L56.5,55.5 Q55.8906,55.5 55.6328,55.2656 Q55.375,55.0313 55.375,54.6406 Q55.375,54.2656 55.6484,54.0234 Q55.9219,53.7813 56.5469,53.7969 L59.2188,47.1406 L58.1094,47.1406 Q57.5,47.1406 57.2344,46.9063 Q56.9688,46.6719 56.9688,46.2813 Q56.9688,45.9063 57.2344,45.6719 Q57.5,45.4375 58.1094,45.4375 L61.7813,45.4375 L65.1719,53.7969 Q65.7656,53.7969 65.9531,53.9375 Q66.3438,54.2031 66.3438,54.6563 Q66.3438,55.0313 66.0859,55.2656 Q65.8281,55.5 65.2188,55.5 L62.9219,55.5 Q62.3125,55.5 62.0469,55.2656 Q61.7813,55.0313 61.7813,54.6406 Q61.7813,54.2656 62.0469,54.0313 Q62.3125,53.7969 62.9219,53.7969 L63.3438,53.7969 L62.9375,52.7656 Z M62.2188,51.0625 L60.8594,47.6875 L59.4844,51.0625 L62.2188,51.0625 Z " fill="#000000"/><text fill="#000000" font-family="sans-serif" font-size="12" font-style="italic" lengthAdjust="spacing" textLength="50" x="81.25" y="55.9102">Politician</text><line style="stroke:#A80036;stroke-width:1.5;" x1="10" x2="170" y1="67" y2="67"/><polygon fill="none" points="20,73,24,77,20,81,16,77" style="stroke:#B38D22;stroke-width:1.0;"/><text fill="#000000" font-family="sans-serif" font-size="11" lengthAdjust="spacing" textLength="60" x="29" y="82.4189">name :String</text><line style="stroke:#A80036;stroke-width:1.5;" x1="10" x2="170" y1="88.8359" y2="88.8359"/><ellipse cx="20" cy="99.8359" fill="#84BE84" rx="3" ry="3" style="stroke:#038048;stroke-width:1.0;"/><text fill="#000000" font-family="sans-serif" font-size="11" font-style="italic" lengthAdjust="spacing" textLength="121" x="29" y="104.2549">debate(String topic):void</text><ellipse cx="20" cy="113.6719" fill="#84BE84" rx="3" ry="3" style="stroke:#038048;stroke-width:1.0;"/><text fill="#000000" font-family="sans-serif" font-size="11" lengthAdjust="spacing" textLength="81" x="29" y="118.0908">getName():String</text><ellipse cx="20" cy="127.5078" fill="#84BE84" rx="3" ry="3" style="stroke:#038048;stroke-width:1.0;"/><text fill="#000000" font-family="sans-serif" font-size="11" lengthAdjust="spacing" textLength="136" x="29" y="131.9268">setName( name :String):void</text><!--MD5=[f7c134f6cb2168bfd822b2e03c2ee887]
class Minister--><rect codeLine="15" fill="#FEFECE" filter="url(#f1471yf8puedxh)" height="103.3438" id="Minister" style="stroke:#A80036;stroke-width:1.5;" width="144" x="181" y="673"/><ellipse cx="227.25" cy="689" fill="#ADD1B2" rx="11" ry="11" style="stroke:#A80036;stroke-width:1.0;"/><path d="M230.0156,684.875 Q230.1719,684.6563 230.3594,684.5469 Q230.5469,684.4375 230.7656,684.4375 Q231.1406,684.4375 231.375,684.6953 Q231.6094,684.9531 231.6094,685.5625 L231.6094,687.0156 Q231.6094,687.625 231.375,687.8906 Q231.1406,688.1563 230.7656,688.1563 Q230.4219,688.1563 230.2188,687.9531 Q230.0156,687.7656 229.9063,687.25 Q229.8594,686.8906 229.6719,686.7031 Q229.3438,686.3281 228.7344,686.1094 Q228.125,685.8906 227.5,685.8906 Q226.7344,685.8906 226.1016,686.2188 Q225.4688,686.5469 224.9766,687.2969 Q224.4844,688.0469 224.4844,689.0781 L224.4844,690.1719 Q224.4844,691.4063 225.375,692.2266 Q226.2656,693.0469 227.8594,693.0469 Q228.7969,693.0469 229.4531,692.7969 Q229.8438,692.6406 230.2656,692.2031 Q230.5313,691.9375 230.6797,691.8594 Q230.8281,691.7813 231.0313,691.7813 Q231.3594,691.7813 231.6172,692.0391 Q231.875,692.2969 231.875,692.6406 Q231.875,692.9844 231.5313,693.3906 Q231.0313,693.9688 230.2344,694.2969 Q229.1563,694.75 227.8594,694.75 Q226.3438,694.75 225.1406,694.125 Q224.1563,693.625 223.4688,692.5547 Q222.7813,691.4844 222.7813,690.2031 L222.7813,689.0469 Q222.7813,687.7188 223.3984,686.5703 Q224.0156,685.4219 225.1094,684.8047 Q226.2031,684.1875 227.4375,684.1875 Q228.1719,684.1875 228.8203,684.3516 Q229.4688,684.5156 230.0156,684.875 Z " fill="#000000"/><text fill="#000000" font-family="sans-serif" font-size="12" lengthAdjust="spacing" textLength="43" x="247.75" y="693.9102">Minister</text><line style="stroke:#A80036;stroke-width:1.5;" x1="182" x2="324" y1="705" y2="705"/><rect fill="none" height="6" style="stroke:#C82930;stroke-width:1.0;" width="6" x="189" y="713"/><text fill="#000000" font-family="sans-serif" font-size="11" lengthAdjust="spacing" textLength="68" x="201" y="720.4189">ministry:String</text><line style="stroke:#A80036;stroke-width:1.5;" x1="182" x2="324" y1="726.8359" y2="726.8359"/><ellipse cx="192" cy="737.8359" fill="#84BE84" rx="3" ry="3" style="stroke:#038048;stroke-width:1.0;"/><text fill="#000000" font-family="sans-serif" font-size="11" lengthAdjust="spacing" textLength="113" x="201" y="742.2549">Minister(String ministry)</text><ellipse cx="192" cy="751.6719" fill="#84BE84" rx="3" ry="3" style="stroke:#038048;stroke-width:1.0;"/><text fill="#000000" font-family="sans-serif" font-size="11" lengthAdjust="spacing" textLength="118" x="201" y="756.0908">debate(String topic):void</text><ellipse cx="192" cy="765.5078" fill="#84BE84" rx="3" ry="3" style="stroke:#038048;stroke-width:1.0;"/><text fill="#000000" font-family="sans-serif" font-size="11" lengthAdjust="spacing" textLength="65" x="201" y="769.9268">order():String</text><!--MD5=[2db2d98910acf1cfa3d289dc331e3b0e]
class OrderIssuable--><rect codeLine="21" fill="#FEFECE" filter="url(#f1471yf8puedxh)" height="70.0234" id="OrderIssuable" style="stroke:#A80036;stroke-width:1.5;" width="111" x="463.5" y="51.5"/><ellipse cx="478.5" cy="71.5938" fill="#B4A7E5" rx="11" ry="11" style="stroke:#A80036;stroke-width:1.0;"/><path d="M479.4531,68.2344 L479.4531,74.8906 L481.1719,74.8906 Q481.7813,74.8906 482.0469,75.125 Q482.3125,75.3594 482.3125,75.75 Q482.3125,76.125 482.0469,76.3594 Q481.7813,76.5938 481.1719,76.5938 L476.0313,76.5938 Q475.4219,76.5938 475.1563,76.3594 Q474.8906,76.125 474.8906,75.7344 Q474.8906,75.3594 475.1563,75.125 Q475.4219,74.8906 476.0313,74.8906 L477.75,74.8906 L477.75,68.2344 L476.0313,68.2344 Q475.4219,68.2344 475.1563,68 Q474.8906,67.7656 474.8906,67.375 Q474.8906,67 475.1563,66.7656 Q475.4219,66.5313 476.0313,66.5313 L481.1719,66.5313 Q481.7813,66.5313 482.0469,66.7656 Q482.3125,67 482.3125,67.375 Q482.3125,67.7656 482.0469,68 Q481.7813,68.2344 481.1719,68.2344 L479.4531,68.2344 Z " fill="#000000"/><text fill="#000000" font-family="sans-serif" font-size="12" font-style="italic" lengthAdjust="spacing" textLength="61" x="501.5" y="68.957">«interface»</text><text fill="#000000" font-family="sans-serif" font-size="12" font-style="italic" lengthAdjust="spacing" textLength="79" x="492.5" y="84.0508">OrderIssuable</text><line style="stroke:#A80036;stroke-width:1.5;" x1="464.5" x2="573.5" y1="91.6875" y2="91.6875"/><line style="stroke:#A80036;stroke-width:1.5;" x1="464.5" x2="573.5" y1="99.6875" y2="99.6875"/><ellipse cx="474.5" cy="110.6875" fill="#84BE84" rx="3" ry="3" style="stroke:#038048;stroke-width:1.0;"/><text fill="#000000" font-family="sans-serif" font-size="11" lengthAdjust="spacing" textLength="65" x="483.5" y="115.1064">order():String</text><!--MD5=[26f93b7de467b1433ef2d77c8b014b08]
class Parliament--><rect codeLine="25" fill="#FEFECE" filter="url(#f1471yf8puedxh)" height="158.6875" id="Parliament" style="stroke:#A80036;stroke-width:1.5;" width="204" x="206" y="7"/><ellipse cx="273.75" cy="23" fill="#ADD1B2" rx="11" ry="11" style="stroke:#A80036;stroke-width:1.0;"/><path d="M276.5156,18.875 Q276.6719,18.6563 276.8594,18.5469 Q277.0469,18.4375 277.2656,18.4375 Q277.6406,18.4375 277.875,18.6953 Q278.1094,18.9531 278.1094,19.5625 L278.1094,21.0156 Q278.1094,21.625 277.875,21.8906 Q277.6406,22.1563 277.2656,22.1563 Q276.9219,22.1563 276.7188,21.9531 Q276.5156,21.7656 276.4063,21.25 Q276.3594,20.8906 276.1719,20.7031 Q275.8438,20.3281 275.2344,20.1094 Q274.625,19.8906 274,19.8906 Q273.2344,19.8906 272.6016,20.2188 Q271.9688,20.5469 271.4766,21.2969 Q270.9844,22.0469 270.9844,23.0781 L270.9844,24.1719 Q270.9844,25.4063 271.875,26.2266 Q272.7656,27.0469 274.3594,27.0469 Q275.2969,27.0469 275.9531,26.7969 Q276.3438,26.6406 276.7656,26.2031 Q277.0313,25.9375 277.1797,25.8594 Q277.3281,25.7813 277.5313,25.7813 Q277.8594,25.7813 278.1172,26.0391 Q278.375,26.2969 278.375,26.6406 Q278.375,26.9844 278.0313,27.3906 Q277.5313,27.9688 276.7344,28.2969 Q275.6563,28.75 274.3594,28.75 Q272.8438,28.75 271.6406,28.125 Q270.6563,27.625 269.9688,26.5547 Q269.2813,25.4844 269.2813,24.2031 L269.2813,23.0469 Q269.2813,21.7188 269.8984,20.5703 Q270.5156,19.4219 271.6094,18.8047 Q272.7031,18.1875 273.9375,18.1875 Q274.6719,18.1875 275.3203,18.3516 Q275.9688,18.5156 276.5156,18.875 Z " fill="#000000"/><text fill="#000000" font-family="sans-serif" font-size="12" lengthAdjust="spacing" textLength="60" x="294.25" y="27.9102">Parliament</text><line style="stroke:#A80036;stroke-width:1.5;" x1="207" x2="409" y1="39" y2="39"/><rect fill="none" height="6" style="stroke:#C82930;stroke-width:1.0;" width="6" x="214" y="47"/><text fill="#000000" font-family="sans-serif" font-size="11" lengthAdjust="spacing" text-decoration="underline" textLength="129" x="226" y="54.4189">parliament = null:Parliament</text><rect fill="none" height="6" style="stroke:#C82930;stroke-width:1.0;" width="6" x="214" y="60.8359"/><text fill="#000000" font-family="sans-serif" font-size="11" lengthAdjust="spacing" textLength="178" x="226" y="68.2549">members: List&lt;MemberOfParliament&gt;</text><rect fill="none" height="6" style="stroke:#C82930;stroke-width:1.0;" width="6" x="214" y="74.6719"/><text fill="#000000" font-family="sans-serif" font-size="11" lengthAdjust="spacing" textLength="80" x="226" y="82.0908">pm:PrimeMinister</text><line style="stroke:#A80036;stroke-width:1.5;" x1="207" x2="409" y1="88.5078" y2="88.5078"/><rect fill="#F24D5C" height="6" style="stroke:#C82930;stroke-width:1.0;" width="6" x="214" y="96.5078"/><text fill="#000000" font-family="sans-serif" font-size="11" lengthAdjust="spacing" textLength="57" x="226" y="103.9268">Parliament()</text><ellipse cx="217" cy="113.3438" fill="#84BE84" rx="3" ry="3" style="stroke:#038048;stroke-width:1.0;"/><text fill="#000000" font-family="sans-serif" font-size="11" lengthAdjust="spacing" text-decoration="underline" textLength="119" x="226" y="117.7627">getInstance() :Parliament</text><rect fill="#F24D5C" height="6" style="stroke:#C82930;stroke-width:1.0;" width="6" x="214" y="124.1797"/><text fill="#000000" font-family="sans-serif" font-size="11" lengthAdjust="spacing" textLength="97" x="226" y="131.5986">countMembers():Tnt</text><ellipse cx="217" cy="141.0156" fill="#84BE84" rx="3" ry="3" style="stroke:#038048;stroke-width:1.0;"/><text fill="#000000" font-family="sans-serif" font-size="11" lengthAdjust="spacing" textLength="90" x="226" y="145.4346">addMember() :void</text><ellipse cx="217" cy="154.8516" fill="#84BE84" rx="3" ry="3" style="stroke:#038048;stroke-width:1.0;"/><text fill="#000000" font-family="sans-serif" font-size="11" lengthAdjust="spacing" textLength="160" x="226" y="159.2705">electPrimeMinister():PrimeMinister</text><!--MD5=[64d65203e0e5ac3f6e483165e2150055]
class PrimeMinister--><rect codeLine="45" fill="#FEFECE" filter="url(#f1471yf8puedxh)" height="158.6875" id="PrimeMinister" style="stroke:#A80036;stroke-width:1.5;" width="207" x="257.5" y="244"/><ellipse cx="318.75" cy="260" fill="#ADD1B2" rx="11" ry="11" style="stroke:#A80036;stroke-width:1.0;"/><path d="M321.5156,255.875 Q321.6719,255.6563 321.8594,255.5469 Q322.0469,255.4375 322.2656,255.4375 Q322.6406,255.4375 322.875,255.6953 Q323.1094,255.9531 323.1094,256.5625 L323.1094,258.0156 Q323.1094,258.625 322.875,258.8906 Q322.6406,259.1563 322.2656,259.1563 Q321.9219,259.1563 321.7188,258.9531 Q321.5156,258.7656 321.4063,258.25 Q321.3594,257.8906 321.1719,257.7031 Q320.8438,257.3281 320.2344,257.1094 Q319.625,256.8906 319,256.8906 Q318.2344,256.8906 317.6016,257.2188 Q316.9688,257.5469 316.4766,258.2969 Q315.9844,259.0469 315.9844,260.0781 L315.9844,261.1719 Q315.9844,262.4063 316.875,263.2266 Q317.7656,264.0469 319.3594,264.0469 Q320.2969,264.0469 320.9531,263.7969 Q321.3438,263.6406 321.7656,263.2031 Q322.0313,262.9375 322.1797,262.8594 Q322.3281,262.7813 322.5313,262.7813 Q322.8594,262.7813 323.1172,263.0391 Q323.375,263.2969 323.375,263.6406 Q323.375,263.9844 323.0313,264.3906 Q322.5313,264.9688 321.7344,265.2969 Q320.6563,265.75 319.3594,265.75 Q317.8438,265.75 316.6406,265.125 Q315.6563,264.625 314.9688,263.5547 Q314.2813,262.4844 314.2813,261.2031 L314.2813,260.0469 Q314.2813,258.7188 314.8984,257.5703 Q315.5156,256.4219 316.6094,255.8047 Q317.7031,255.1875 318.9375,255.1875 Q319.6719,255.1875 320.3203,255.3516 Q320.9688,255.5156 321.5156,255.875 Z " fill="#000000"/><text fill="#000000" font-family="sans-serif" font-size="12" lengthAdjust="spacing" textLength="76" x="339.25" y="264.9102">PrimeMinister</text><line style="stroke:#A80036;stroke-width:1.5;" x1="258.5" x2="463.5" y1="276" y2="276"/><rect fill="none" height="6" style="stroke:#C82930;stroke-width:1.0;" width="6" x="265.5" y="284"/><text fill="#000000" font-family="sans-serif" font-size="11" lengthAdjust="spacing" textLength="107" x="277.5" y="291.4189">parliament : Parliament</text><rect fill="none" height="6" style="stroke:#C82930;stroke-width:1.0;" width="6" x="265.5" y="297.8359"/><text fill="#000000" font-family="sans-serif" font-size="11" lengthAdjust="spacing" textLength="105" x="277.5" y="305.2549">cabinet = null :Cabinet</text><line style="stroke:#A80036;stroke-width:1.5;" x1="258.5" x2="463.5" y1="311.6719" y2="311.6719"/><ellipse cx="268.5" cy="322.6719" fill="#84BE84" rx="3" ry="3" style="stroke:#038048;stroke-width:1.0;"/><text fill="#000000" font-family="sans-serif" font-size="11" lengthAdjust="spacing" textLength="175" x="277.5" y="327.0908">(Parliament parliament):PrimeMinister</text><ellipse cx="268.5" cy="336.5078" fill="#84BE84" rx="3" ry="3" style="stroke:#038048;stroke-width:1.0;"/><text fill="#000000" font-family="sans-serif" font-size="11" lengthAdjust="spacing" textLength="98" x="277.5" y="340.9268">getCabinet():Cabinet</text><ellipse cx="268.5" cy="350.3438" fill="#84BE84" rx="3" ry="3" style="stroke:#038048;stroke-width:1.0;"/><text fill="#000000" font-family="sans-serif" font-size="11" lengthAdjust="spacing" textLength="154" x="277.5" y="354.7627">addMinister(String ministry):void</text><ellipse cx="268.5" cy="364.1797" fill="#84BE84" rx="3" ry="3" style="stroke:#038048;stroke-width:1.0;"/><text fill="#000000" font-family="sans-serif" font-size="11" lengthAdjust="spacing" textLength="181" x="277.5" y="368.5986">removeMinister(Minister minister):void</text><ellipse cx="268.5" cy="378.0156" fill="#84BE84" rx="3" ry="3" style="stroke:#038048;stroke-width:1.0;"/><text fill="#000000" font-family="sans-serif" font-size="11" lengthAdjust="spacing" textLength="118" x="277.5" y="382.4346">debate(String topic):void</text><ellipse cx="268.5" cy="391.8516" fill="#84BE84" rx="3" ry="3" style="stroke:#038048;stroke-width:1.0;"/><text fill="#000000" font-family="sans-serif" font-size="11" lengthAdjust="spacing" textLength="65" x="277.5" y="396.2705">order():String</text><!--MD5=[f9e7616da11d185a993aad8d7a19613a]
reverse link Politician to MemberOfParliament--><path d="M107.37,157.88 C117.71,199.77 130.41,251.23 138.83,285.35 " fill="none" id="Politician-backto-MemberOfParliament" style="stroke:#A80036;stroke-width:1.0;"/><polygon fill="none" points="100.51,159.3,102.51,138.2,114.1,155.94,100.51,159.3" style="stroke:#A80036;stroke-width:1.0;"/><!--MD5=[67102cf8fd146d75ec2dfce8711eb457]
reverse link Politician to Minister--><path d="M67.48,157.6 C50.15,222.39 32.75,320.78 56,403 C85.77,508.27 160.92,612.99 209.32,672.82 " fill="none" id="Politician-backto-Minister" style="stroke:#A80036;stroke-width:1.0;"/><polygon fill="none" points="60.78,155.57,72.93,138.21,74.25,159.36,60.78,155.57" style="stroke:#A80036;stroke-width:1.0;"/><!--MD5=[e80d1b38370763ec5c4cb3332a7e08d9]
reverse link OrderIssuable to Minister--><path d="M531.74,141.34 C552.54,243.07 582.33,466.36 484,612 C447.87,665.52 378.56,694.18 325.25,708.97 " fill="none" id="OrderIssuable-backto-Minister" style="stroke:#A80036;stroke-width:1.0;stroke-dasharray:7.0,7.0;"/><polygon fill="none" points="524.84,142.58,527.48,121.55,538.53,139.63,524.84,142.58" style="stroke:#A80036;stroke-width:1.0;"/><!--MD5=[da65193c593025bcaf539657f5b89546]
reverse link Politician to PrimeMinister--><path d="M163.6,151.33 C196.53,179.88 235.67,213.82 270.38,243.92 " fill="none" id="Politician-backto-PrimeMinister" style="stroke:#A80036;stroke-width:1.0;"/><polygon fill="none" points="158.99,156.59,148.47,138.2,168.17,146.02,158.99,156.59" style="stroke:#A80036;stroke-width:1.0;"/><!--MD5=[427bce704adda64640955974a260b020]
reverse link OrderIssuable to PrimeMinister--><path d="M484.65,138.59 C464.03,169.26 437.36,208.92 414.08,243.56 " fill="none" id="OrderIssuable-backto-PrimeMinister" style="stroke:#A80036;stroke-width:1.0;stroke-dasharray:7.0,7.0;"/><polygon fill="none" points="479.06,134.36,496.03,121.67,490.68,142.17,479.06,134.36" style="stroke:#A80036;stroke-width:1.0;"/><!--MD5=[a5ceccf70cb3ea288fa4bdef532130d7]
link Cabinet to Minister--><path codeLine="57" d="M321.4,612.04 C311.52,628.14 300.94,645.38 291.13,661.36 " fill="none" id="Cabinet-to-Minister" style="stroke:#A80036;stroke-width:1.0;"/><polygon fill="#A80036" points="284.14,672.75,290.6869,669.727,290.4145,662.5211,283.8676,665.544,284.14,672.75" style="stroke:#A80036;stroke-width:1.0;"/><!--MD5=[ffecc2fca6006f376612845b3f14e8b0]
link Parliament to MemberOfParliament--><path codeLine="61" d="M254.5,166.08 C230.07,201.97 201.91,243.32 180.69,274.49 " fill="none" id="Parliament-to-MemberOfParliament" style="stroke:#A80036;stroke-width:1.0;"/><polygon fill="#A80036" points="173.21,285.48,179.8931,282.7716,179.9635,275.5608,173.2803,278.2692,173.21,285.48" style="stroke:#A80036;stroke-width:1.0;"/><!--MD5=[78421c2fb3bd9138369feb86864dcea2]
link Parliament to Parliament--><path codeLine="62" d="M410.17,65.29 C430.5,67.68 445,74.75 445,86.5 C445,97.24 432.89,104.07 415.27,106.99 " fill="none" id="Parliament-to-Parliament" style="stroke:#A80036;stroke-width:1.0;"/><polygon fill="#A80036" points="410.17,107.71,419.6409,110.4123,415.1209,107.0109,418.5223,102.4909,410.17,107.71" style="stroke:#A80036;stroke-width:1.0;"/><!--MD5=[6251045e84a2ada612108d9242ea7071]
link Parliament to PrimeMinister--><path codeLine="63" d="M325.72,166.08 C331,189.5 336.81,215.24 342.16,238.97 " fill="none" id="Parliament-to-PrimeMinister" style="stroke:#A80036;stroke-width:1.0;stroke-dasharray:7.0,7.0;"/><polygon fill="#A80036" points="343.29,244,345.2094,234.34,342.1887,239.1228,337.4059,236.1021,343.29,244" style="stroke:#A80036;stroke-width:1.0;"/><text fill="#000000" font-family="sans-serif" font-size="13" lengthAdjust="spacing" textLength="52" x="338" y="210.4951">«Create»</text><!--MD5=[73c29800d9c8a28037ec8654537de251]
reverse link PrimeMinister to Minister--><path codeLine="66" d="M274.83,413.7 C259.72,434.31 246.23,457.22 238,481 C216.07,544.38 227.17,622.58 238.73,672.74 " fill="none" id="PrimeMinister-backto-Minister" style="stroke:#A80036;stroke-width:1.0;"/><polygon fill="#A80036" points="282.85,403.13,276.0349,405.4866,275.589,412.6839,282.4041,410.3273,282.85,403.13" style="stroke:#A80036;stroke-width:1.0;"/><!--MD5=[22bca2fc9765df898f24cfdf10663fcf]
link PrimeMinister to Cabinet--><path codeLine="69" d="M361,403.04 C361,426.68 361,452.47 361,475.52 " fill="none" id="PrimeMinister-to-Cabinet" style="stroke:#A80036;stroke-width:1.0;stroke-dasharray:7.0,7.0;"/><polygon fill="#A80036" points="361,480.7,365,471.7,361,475.7,357,471.7,361,480.7" style="stroke:#A80036;stroke-width:1.0;"/><text fill="#000000" font-family="sans-serif" font-size="13" lengthAdjust="spacing" textLength="50" x="362" y="447.4951">«create»</text><!--MD5=[a2fef8cf75750f20e42977623a467efc]
@startuml
class Cabinet{
    -  pm: PrimeMinister
    -  ministers:List <Minister>
    +  Cabinet(pm :PrimeMinister)
    -  countMinisters():int
    +  addMinister(minister:Minister ):void
    +  removeMinister(minister:Minister ):void
}

class MemberOfParliament extends Politician  {
    +  debate(String topic):void
    +  vote():Boolean
}

class Minister extends Politician implements OrderIssuable {
    -  ministry:String
    +  Minister(String ministry)
    +  debate(String topic):void
    +  order():String
}
interface OrderIssuable <<interface>> {
    +  order():String
}

class Parliament{
    - {static}  parliament = null:Parliament
    -  members: List<MemberOfParliament>
    -  pm:PrimeMinister

    - Parliament()
    + {static}getInstance() :Parliament
    -  countMembers():Tnt
    +  addMember() :void
    +  electPrimeMinister():PrimeMinister
}

abstract Politician{
    # name :String
    + {abstract}  debate(String topic):void
    +  getName():String
    +  setName( name :String):void

}

class PrimeMinister extends Politician implements OrderIssuable{
    -  parliament : Parliament
    -  cabinet = null :Cabinet
    + (Parliament parliament):PrimeMinister
    +  getCabinet():Cabinet
    +  addMinister(String ministry):void
    +  removeMinister(Minister minister):void
    +  debate(String topic):void
    +  order():String
}

' คณะรัดมนตี
Cabinet - -* Minister


' รัฐสภา Parliament
Parliament  - -* MemberOfParliament 
Parliament - -> Parliament
Parliament ..> PrimeMinister:<<Create>>

' รัฐมนตรี Minister
PrimeMinister *- - Minister

' นากยก PrimeMinister
PrimeMinister ..> Cabinet :<<create>>

' สมาชิกสภา MemberOfParliament
' MemberOfParliament <.. Minister:<<call>>
@enduml

@startuml
class Cabinet{
    -  pm: PrimeMinister
    -  ministers:List <Minister>
    +  Cabinet(pm :PrimeMinister)
    -  countMinisters():int
    +  addMinister(minister:Minister ):void
    +  removeMinister(minister:Minister ):void
}

class MemberOfParliament extends Politician  {
    +  debate(String topic):void
    +  vote():Boolean
}

class Minister extends Politician implements OrderIssuable {
    -  ministry:String
    +  Minister(String ministry)
    +  debate(String topic):void
    +  order():String
}
interface OrderIssuable <<interface>> {
    +  order():String
}

class Parliament{
    - {static}  parliament = null:Parliament
    -  members: List<MemberOfParliament>
    -  pm:PrimeMinister

    - Parliament()
    + {static}getInstance() :Parliament
    -  countMembers():Tnt
    +  addMember() :void
    +  electPrimeMinister():PrimeMinister
}

abstract Politician{
    # name :String
    + {abstract}  debate(String topic):void
    +  getName():String
    +  setName( name :String):void

}

class PrimeMinister extends Politician implements OrderIssuable{
    -  parliament : Parliament
    -  cabinet = null :Cabinet
    + (Parliament parliament):PrimeMinister
    +  getCabinet():Cabinet
    +  addMinister(String ministry):void
    +  removeMinister(Minister minister):void
    +  debate(String topic):void
    +  order():String
}

Cabinet - -* Minister


Parliament  - -* MemberOfParliament 
Parliament - -> Parliament
Parliament ..> PrimeMinister:<<Create>>

PrimeMinister *- - Minister

PrimeMinister ..> Cabinet :<<create>>

@enduml

PlantUML version 1.2022.0(Tue Jan 11 23:16:42 ICT 2022)
(GPL source distribution)
Java Runtime: Java(TM) SE Runtime Environment
JVM: Java HotSpot(TM) Client VM
Default Encoding: Cp1252
Language: en
Country: US
--></g></svg>